<svg xmlns="http://www.w3.org/2000/svg" width="undefined" height="undefined" viewBox="0 0 24 24"><path fill="currentColor" d="M22.078 8.347a1.368 1.368 0 0 0-.488-.325V4.647a.717.717 0 1 0-1.434 0V7.85h-.21a5.479 5.479 0 0 0-5.25-3.92H9.427a5.48 5.48 0 0 0-5.25 3.92H3.9V4.647a.717.717 0 1 0-1.434 0v3.385a1.501 1.501 0 0 0-.469.315A1.722 1.722 0 0 0 1.5 9.552v4.896a1.702 1.702 0 0 0 1.702 1.702h.956a5.48 5.48 0 0 0 5.25 3.92h5.183a5.48 5.48 0 0 0 5.25-3.92h.955a1.702 1.702 0 0 0 1.702-1.702V9.552c.02-.44-.131-.872-.42-1.205M3.996 14.716H3.24a.267.267 0 0 1-.191-.077a.287.287 0 0 1-.076-.191V9.552a.258.258 0 0 1 .248-.268h.775a.545.545 0 0 0 0 .125v5.182a.545.545 0 0 0 0 .125m4.312-2.869v-1.96a.813.813 0 1 1 1.616 0v1.96a.813.813 0 1 1-1.616 0m6.283 3.662a3.605 3.605 0 0 1-5.068 0a.813.813 0 0 1 .885-1.326a.804.804 0 0 1 .262.179a2.017 2.017 0 0 0 2.773 0a.804.804 0 0 1 1.148 0a.813.813 0 0 1 0 1.157zm1.367-3.69h-1.913a.812.812 0 0 1-.574-1.385a.803.803 0 0 1 .574-.232h1.913a.805.805 0 0 1 .754 1.117a.812.812 0 0 1-.754.509zm5.182 2.62a.287.287 0 0 1-.076.19a.267.267 0 0 1-.191.077h-.756a.55.55 0 0 0 0-.124V9.37a.55.55 0 0 0 0-.124h.765a.248.248 0 0 1 .182.077c.048.052.076.12.076.19z"/></svg>